<!-- Generated by SVGMaker - https://svgmaker.io --><!-- Prompt: im not sure what the point of the air waves thing and the triangle is, maybe a throw back to AOL's triangle? if thats the case maybe make the modem and triangle fit well together and we can ditch that radio wave effect emitting from it --><!-- Quality: medium --><!-- Type: edit --><!-- Created: 2025-10-28T05:52:58.584Z --><svg version="1.1" xmlns="http://www.w3.org/2000/svg" style="display: block;" viewBox="0 0 2048 2048" width="1024" height="1024" preserveAspectRatio="none">
<path transform="translate(0,0)" fill="rgb(255,250,227)" d="M 0 0 L 2048 0 L 2048 2048 L 0 2048 L 0 0 z"></path>
<path transform="translate(0,0)" fill="rgb(0,30,55)" d="M 403.655 1047.18 C 382.203 1006.53 383.804 991.312 383.865 945.923 L 383.898 887.53 C 383.912 861.956 382.457 819.612 384.156 795.646 C 384.768 787.454 386.346 779.362 388.858 771.54 C 396.628 746.737 410.464 725.636 429.734 708.266 C 445.281 694.254 465.948 682.466 484.166 671.765 C 525.949 647.223 567.112 621.19 609.51 597.774 C 621.167 591.336 634.159 586.227 647.593 586.111 C 682.364 585.568 717.627 585.954 752.394 585.97 L 956.413 585.935 L 1261.98 585.964 L 1343.84 585.884 C 1384.82 585.809 1411.31 581.237 1448.39 602.918 C 1473.12 617.384 1497.84 632.392 1522.48 647.023 C 1540.51 657.624 1558.41 668.445 1576.17 679.483 C 1607.77 698.838 1630.84 713.706 1648.74 748.154 C 1655.8 761.829 1660.44 776.623 1662.45 791.882 C 1664.4 806.283 1664.04 821.81 1663.9 836.365 C 1663.43 884.277 1664.67 932.533 1663.5 980.391 C 1663.04 999.453 1658.97 1019.26 1650.17 1036.05 C 1648.24 1039.75 1645.97 1043.97 1644.31 1047.75 C 1655.46 1038.56 1669.42 1019.13 1675.59 1006.14 C 1702.79 1044.72 1737.42 1073.81 1745.54 1122.95 C 1750.69 1154.07 1742.79 1186.73 1724.7 1212.38 C 1705.53 1239.27 1676.47 1257.46 1643.9 1262.96 C 1624.83 1266.12 1596.44 1265.15 1576.53 1265.12 L 1479.86 1265.02 L 1159.11 1266 C 978.92 1266.12 796.425 1268.33 616.483 1266.49 L 486.898 1265.96 C 463.59 1265.87 436.243 1266.57 413.306 1264.59 C 391.231 1262.53 370.123 1254.55 352.208 1241.49 C 325.297 1221.96 307.819 1190.87 303.265 1158.17 C 293.954 1091.31 335.7 1056.28 371.295 1008.79 C 379.174 1020.4 392.379 1039 403.655 1047.18 z"></path>
<path transform="translate(0,0)" fill="#fc9d2c" d="M 1644.31 1047.75 C 1655.46 1038.56 1669.42 1019.13 1675.59 1006.14 C 1702.79 1044.72 1737.42 1073.81 1745.54 1122.95 C 1750.69 1154.07 1742.79 1186.73 1724.7 1212.38 C 1705.53 1239.27 1676.47 1257.46 1643.9 1262.96 C 1624.83 1266.12 1596.44 1265.15 1576.53 1265.12 L 1479.86 1265.02 L 1159.11 1266 C 978.92 1266.12 796.425 1268.33 616.483 1266.49 L 486.898 1265.96 C 463.59 1265.87 436.243 1266.57 413.306 1264.59 C 391.231 1262.53 370.123 1254.55 352.208 1241.49 C 325.297 1221.96 307.819 1190.87 303.265 1158.17 C 293.954 1091.31 335.7 1056.28 371.295 1008.79 C 379.174 1020.4 392.379 1039 403.655 1047.18 C 407.669 1053.1 414.946 1064.11 419.456 1068.93 C 445.975 1097.31 478.13 1110.84 514.542 1120.7 C 518.12 1134.21 525.449 1154.82 538.01 1162.48 C 542.025 1164.92 547.905 1165.37 552.548 1165.71 C 570.531 1167.06 680.292 1167.59 692.205 1163.61 C 701.737 1160.42 709.255 1145.63 713.048 1136.83 C 715.387 1131.37 717.251 1125.72 718.62 1119.94 L 1330.89 1119.98 C 1334.04 1133.84 1341.39 1154.95 1354.29 1162.72 C 1358.13 1165.04 1364.4 1165.35 1368.88 1165.67 C 1387.64 1166.99 1495.24 1167.62 1507.65 1163.46 C 1516.89 1160.36 1524.21 1145.81 1527.91 1137.32 C 1530.24 1131.97 1531.83 1126.39 1533.11 1120.7 C 1570.73 1110.2 1603.03 1097.97 1630.57 1067.8 C 1634.75 1063.21 1640.45 1053.31 1644.31 1047.75 z"></path>
<path transform="translate(0,0)" fill="rgb(255,250,227)" d="M 833.519 702.465 L 1317.2 702.086 L 1450.97 702.017 C 1471.77 702.01 1509.88 700.931 1528.54 703.962 C 1551.31 707.695 1572.37 718.381 1588.83 734.555 C 1627.65 773.127 1620.5 822.117 1620.44 873.223 L 1620.46 966.142 C 1620.37 996.973 1612.87 1022.62 1590.53 1045.11 C 1560.51 1075.32 1520.07 1078.47 1479.92 1078.73 C 1455.11 1078.89 1430.15 1079.02 1405.26 1079.03 L 1213.67 1078.98 L 750.308 1079.1 L 597.11 1078.11 C 573.832 1077.85 550.554 1079.38 527.475 1076.46 C 470.701 1069.29 427.639 1028.08 426.656 969.311 C 425.944 926.781 426.293 883.747 426.215 841.134 C 426.181 822.39 425.72 803.618 430.458 785.248 C 434.826 768.762 443.201 753.611 454.839 741.143 C 498.449 693.966 561.52 703.871 619.882 703.921 L 719.532 703.265 C 756.888 703.308 796.433 704.053 833.519 702.465 z"></path>
<path transform="translate(0,0)" fill="rgb(0,30,55)" d="M 832.478 734.344 C 835.223 734.252 837.97 734.176 840.716 734.118 C 891.615 733.091 946.147 733.977 997.237 733.974 L 1298.09 733.986 L 1446.02 733.969 C 1464.49 733.935 1507.26 732.685 1522.99 734.898 C 1539.72 737.243 1555.25 744.889 1567.3 756.712 C 1603.54 792.029 1586.39 851.157 1590.39 896.318 C 1590.26 902.038 1590.56 907.979 1590.4 913.68 C 1589.28 952.816 1599.84 992.735 1569.11 1023.35 C 1558.64 1033.75 1545.41 1040.93 1530.99 1044.05 C 1504.13 1049.95 1441.85 1047.99 1411.06 1047.98 L 1216.5 1048.02 L 759.32 1048.02 L 624.444 1048.06 C 591.076 1048.06 557.132 1049.34 524.018 1044.75 C 510.542 1042.88 496.562 1036.14 485.838 1027.9 C 460.15 1008.14 456.098 978.703 456.162 948.276 C 456.097 914.819 456.295 881.681 456.167 848.259 C 456.102 831.301 455.413 813.637 458.856 797.021 C 461.136 785.545 466.245 774.82 473.718 765.818 C 485.823 751.182 502.563 741.118 521.167 737.293 C 533.79 734.662 576.484 735.846 592.075 735.759 L 750.682 735.41 C 772.055 735.364 811.121 736.462 830.999 734.497 L 832.478 734.344 z"></path>
<path transform="translate(0,0)" fill="rgb(255,250,227)" d="M 601.608 823.698 C 638.428 820.089 671.189 847.044 674.741 883.87 C 678.293 920.696 651.288 953.416 614.457 956.911 C 577.706 960.398 545.073 933.465 541.528 896.719 C 537.984 859.973 564.868 827.299 601.608 823.698 z"></path>
<path transform="translate(0,0)" fill="rgb(0,30,55)" d="M 602.012 854.774 C 621.794 851.31 640.615 864.609 643.956 884.411 C 647.297 904.214 633.88 922.952 614.057 926.168 C 594.408 929.357 575.872 916.084 572.56 896.456 C 569.249 876.828 582.405 858.209 602.012 854.774 z"></path>
<path transform="translate(0,0)" fill="rgb(255,250,227)" d="M 1123.71 856.24 C 1135.08 853.803 1146.88 857.663 1154.61 866.346 C 1162.34 875.029 1164.81 887.196 1161.07 898.206 C 1157.34 909.215 1147.98 917.367 1136.56 919.553 C 1119.17 922.881 1102.35 911.596 1098.83 894.248 C 1095.31 876.9 1106.4 859.951 1123.71 856.24 z"></path>
<path transform="translate(0,0)" fill="rgb(255,250,227)" d="M 1271.2 856.454 C 1282.51 853.708 1294.43 857.268 1302.39 865.771 C 1310.34 874.274 1313.1 886.402 1309.61 897.511 C 1306.12 908.62 1296.91 916.987 1285.52 919.409 C 1268.26 923.079 1251.25 912.204 1247.33 894.994 C 1243.41 877.783 1254.04 860.617 1271.2 856.454 z"></path>
<path transform="translate(0,0)" fill="rgb(255,250,227)" d="M 1420.41 856.398 C 1437.69 852.331 1455.01 862.987 1459.17 880.243 C 1463.33 897.5 1452.76 914.874 1435.53 919.124 C 1418.17 923.406 1400.63 912.746 1396.44 895.359 C 1392.25 877.972 1403.01 860.495 1420.41 856.398 z"></path>
<path transform="translate(0,0)" fill="#fc9d2c" d="M 1010.74 186.328 C 1037.26 185.06 1054.09 186.95 1078.95 197.716 C 1113.9 212.85 1128.34 239.793 1149 269.738 L 1200.49 344.14 L 1289.48 472.44 C 1306.77 497.3 1340.01 540.464 1349.48 565.959 L 1040.5 565.98 L 700.725 565.96 C 708.373 547.194 725.672 524.245 737.519 506.99 L 790.679 429.525 L 879.534 299.328 C 893.605 278.674 907.529 257.611 921.836 237.125 C 945.008 203.947 972.238 192.739 1010.74 186.328 z"></path>
<path transform="translate(0,0)" fill="rgb(0,30,55)" d="M 1278.24 1330.38 C 1371.66 1326.55 1391.75 1387.83 1390.96 1467.39 C 1390.45 1518.16 1392.89 1568.32 1390.11 1619.39 C 1386.93 1677.79 1359.85 1719.44 1297.9 1722 C 1235.39 1722.9 1193.01 1702.83 1184.05 1633.51 C 1179.01 1594.47 1183.52 1553.95 1182.03 1514.65 C 1181.25 1494.15 1182.51 1473.23 1181.95 1452.7 C 1181.39 1380.27 1203.68 1338.42 1278.24 1330.38 z"></path>
<path transform="translate(0,0)" fill="rgb(255,250,227)" d="M 1281.66 1395.36 C 1296.73 1393.16 1316.35 1400.47 1320.12 1416.62 C 1324.92 1437.23 1323.97 1461.44 1323.99 1482.65 L 1324 1545.37 C 1323.98 1572.86 1324.83 1601.16 1322.62 1628.5 C 1321.4 1643.66 1310.75 1655.43 1296.25 1659.03 C 1285.71 1659.21 1273.08 1660.23 1264.26 1653.87 C 1247.12 1641.51 1249.95 1614.75 1249.94 1596.57 L 1249.92 1538.34 L 1249.94 1469.21 C 1249.92 1439.87 1242.87 1399.78 1281.66 1395.36 z"></path>
<path transform="translate(0,0)" fill="rgb(0,30,55)" d="M 242.704 1336.36 C 270.899 1335.65 303.011 1335.96 330.802 1338.51 C 358.747 1341.79 385.037 1352.85 402.872 1375.02 C 425.116 1402.68 425.938 1430.49 427.233 1464.3 C 428.081 1486.45 427.967 1508.58 427.727 1530.86 C 427.388 1562.31 428.455 1594.04 425.148 1625.41 C 422.13 1654.97 408.592 1679.27 385.543 1697.82 C 380.673 1701.47 375.41 1704.58 369.852 1707.07 C 360.134 1711.47 346.419 1714.82 336.354 1716.2 C 320.836 1718.33 238.002 1720.3 227.578 1716.35 C 218.576 1707.36 221.821 1681.29 221.93 1668.61 L 222.027 1601.65 L 221.987 1450.8 C 221.971 1419.25 221.244 1387.63 223.018 1356.15 C 223.925 1340.07 227.867 1338.03 242.704 1336.36 z"></path>
<path transform="translate(0,0)" fill="rgb(255,250,227)" d="M 288.069 1398.14 C 319.802 1397.48 353.521 1399.9 356.809 1439.34 C 361.741 1498.49 361.646 1561.87 357.363 1621.2 C 356.817 1628.77 351.319 1637.65 346.82 1643.59 C 331.535 1658.77 308.468 1656.07 288.057 1656 L 288.069 1398.14 z"></path>
<path transform="translate(0,0)" fill="rgb(0,30,55)" d="M 1594 1336.46 C 1598.77 1336.26 1603.71 1336.42 1608.4 1336.45 C 1631.83 1336.59 1633.58 1342.84 1633.65 1363.54 C 1634.06 1473.23 1633.95 1582.84 1633.87 1692.55 C 1633.86 1714.9 1630.18 1717.7 1606.51 1718.65 C 1597.34 1719.02 1587.34 1718.46 1578.34 1716.91 C 1564.38 1714.23 1562.03 1700.47 1558.07 1689.64 C 1536.07 1629.52 1516.71 1566.76 1493.68 1507.15 C 1494.57 1548.41 1492.87 1591.18 1493.01 1632.61 C 1492.63 1656.35 1493.59 1680.18 1492.73 1703.9 C 1492.2 1718.23 1476.14 1717.81 1465.82 1718.38 C 1457.07 1718.56 1447.79 1719.19 1439.17 1717.57 C 1428.65 1715.59 1427.95 1706.13 1427.94 1697.11 C 1427.87 1639.42 1428.06 1581.72 1428 1524.03 L 1427.91 1415.22 C 1427.9 1393.52 1426.46 1365.66 1429.9 1344.96 C 1431.94 1332.72 1481.4 1336.71 1491.03 1339.81 C 1502.11 1349.71 1518.57 1405.2 1524.38 1422.1 C 1539.25 1465.66 1554.39 1509.12 1569.81 1552.49 C 1570.77 1485.72 1568.96 1418.62 1570.3 1351.85 C 1570.63 1335.55 1581.05 1337.01 1594 1336.46 z"></path>
<path transform="translate(0,0)" fill="rgb(0,30,55)" d="M 672.598 1336.45 C 684.936 1335.65 704.931 1335.32 716.144 1340.53 C 722.921 1343.68 725.601 1351.18 727.527 1358.27 C 732.134 1375.21 735.61 1393.94 739.224 1411.2 L 758.841 1503.26 L 785.241 1626.29 C 790.107 1648.88 796.375 1672.04 799.526 1694.92 C 800.198 1699.8 800.611 1706.61 797.772 1710.95 C 795.524 1714.39 791.734 1716.17 787.859 1717.14 C 778.539 1719.49 745.379 1720.16 737.676 1715.19 C 726.363 1707.88 720.922 1655.93 717.416 1640.84 C 710.288 1640.66 702.903 1640.71 695.75 1640.66 L 645.652 1640.68 C 638.718 1662.18 641.718 1686.06 632.913 1707.91 C 626.901 1722.82 579.6 1720.31 571.859 1714.97 C 561.763 1708 576.176 1655.72 578.803 1643.28 L 593.538 1572.58 L 622.232 1434.84 C 627.336 1410.47 632.271 1386.04 637.834 1361.77 C 643.286 1337.99 649.848 1338.07 672.598 1336.45 z"></path>
<path transform="translate(0,0)" fill="rgb(255,250,227)" d="M 682.363 1443.75 C 685.286 1446.82 706.912 1564.4 709.612 1579 L 685.5 1579 L 658.19 1579.04 C 667.294 1536.07 672.116 1487.51 682.363 1443.75 z"></path>
<path transform="translate(0,0)" fill="rgb(0,30,55)" d="M 1712.48 1336.47 L 1782.24 1336.28 C 1794.21 1336.26 1806.92 1335.34 1818.77 1336.81 C 1823.82 1337.44 1829.63 1338.8 1833.66 1342.09 C 1835.66 1343.72 1836 1345.32 1836.26 1347.78 C 1837.21 1356.89 1837.58 1392.06 1832.2 1397.53 C 1825.14 1404.71 1757.62 1401.48 1743.97 1401.2 L 1743.96 1494.02 C 1759.05 1493.92 1801.64 1491.1 1815.11 1498.45 C 1823.21 1502.87 1821.41 1543.32 1815.17 1551.75 C 1807.04 1556.61 1756.24 1554.49 1743.94 1554.42 L 1743.94 1653.46 L 1771.08 1653.33 C 1787.66 1653.41 1818.17 1650.75 1832.72 1656.74 C 1844.51 1661.6 1841.53 1706.74 1835.18 1715.6 C 1824.52 1720.92 1768.55 1717.7 1753.92 1718.36 C 1734.57 1719.24 1708.6 1717.97 1688.69 1717.86 C 1679.74 1717.82 1675.83 1708.94 1676.21 1701.34 C 1675.57 1683.81 1675.91 1666.25 1675.91 1648.72 L 1675.9 1544.86 L 1675.9 1425.91 C 1675.91 1403.72 1675.6 1381.68 1676.53 1359.5 C 1677.62 1333.51 1692.1 1336.81 1712.48 1336.47 z"></path>
<path transform="translate(0,0)" fill="rgb(0,30,55)" d="M 992.697 1336.44 C 1022.83 1335.59 1052.53 1336.63 1084.01 1336.31 C 1097.8 1336.17 1150.26 1334.41 1163.41 1339.42 C 1168.63 1341.41 1172.16 1391.31 1164.48 1395.76 C 1150.99 1403.57 1120.55 1400.96 1103.17 1400.91 L 1104.08 1675.6 C 1106.48 1707.67 1107.97 1720.1 1070.02 1718.77 C 1056.16 1718.29 1036.56 1722.13 1036.23 1704.13 C 1035.62 1670.86 1035.85 1635.62 1035.85 1602.56 L 1035.95 1401.05 C 1023.26 1401.13 989.641 1403.35 976.991 1397.41 C 973.949 1395.99 971.095 1382.16 971.072 1378.07 C 971.008 1366.66 968.927 1349.44 976.231 1339.69 C 978.659 1336.99 988.751 1336.72 992.697 1336.44 z"></path>
<path transform="translate(0,0)" fill="rgb(0,30,55)" d="M 851.767 1336.41 C 860.861 1336.19 884.465 1334.35 891.279 1340.1 C 893.399 1341.89 893.888 1350.53 893.922 1353.71 C 894.332 1391.26 893.775 1429.07 894.029 1466.6 L 896.054 1653.18 C 912.263 1653.63 928.457 1652.67 944.756 1653.14 C 960.316 1653.91 990.058 1647.92 988.185 1672.84 C 986.528 1694.88 996.449 1718.48 967.25 1718.32 L 885.495 1718.38 C 873.367 1718.39 842.198 1720.04 832.287 1714.91 C 826.012 1705.74 827.899 1662.56 827.903 1648.87 L 827.938 1570.55 L 827.955 1445.92 C 827.945 1416.29 827.359 1386.91 829.087 1357.35 C 830.194 1338.41 834.581 1338.01 851.767 1336.41 z"></path>
<path transform="translate(0,0)" fill="rgb(0,30,55)" d="M 492.776 1336.47 C 501.394 1336.24 529.884 1335.22 532.045 1340.61 C 537.981 1355.41 536.003 1410.19 536.011 1425.85 L 536.038 1543.87 L 536.018 1642.19 C 536.011 1660.52 536.216 1678.76 535.602 1697.09 C 534.974 1715.85 529.588 1717.53 512.203 1718.22 C 460.246 1718.68 467.781 1715.54 467.803 1666.24 L 467.883 1592.8 L 467.857 1438.24 C 467.83 1411.36 467.764 1384.41 467.865 1357.53 C 467.881 1353.2 467.713 1345.83 470.365 1342.72 C 475.535 1336.66 485.595 1336.92 492.776 1336.47 z"></path>
</svg>